ply
format ascii 1.0
comment Generated by the CGAL library
element vertex 24
property double x
property double y
property double z
element face 24
property list uchar int vertex_indices
end_header
-39.143099999999997 2.3207599999999999 5.9004399999999997 
-39.5548 -4.2785399999999996 13.2234 
43.150199999999998 -5.8878599999999999 16.9313 
43.522399999999998 0.71989599999999998 9.5981000000000005 
43.522399999999998 0.71989800000000004 9.5981000000000005 
43.516199999999998 5.8386699999999996 14.17 
-39.042000000000002 7.46401 10.5009 
-39.143099999999997 2.3207599999999999 5.9004300000000001 
-39.5548 -4.2785500000000001 13.2234 
-39.457099999999997 0.85822799999999999 17.966000000000001 
43.139699999999998 -0.77509300000000003 21.645 
43.139699999999998 -0.77508999999999995 21.645 
-39.457099999999997 0.85823099999999997 17.966000000000001 
-39.042000000000002 7.4640000000000004 10.5009 
-39.554900000000004 -4.2785399999999996 13.2234 
-39.042099999999998 7.4640000000000004 10.5009 
-39.457099999999997 0.85823000000000005 17.966000000000001 
43.522399999999998 0.71989899999999996 9.5981000000000005 
43.139699999999998 -0.775092 21.645 
43.516100000000002 5.8386699999999996 14.17 
-39.143099999999997 2.3207599999999999 5.9004399999999997 
43.150199999999998 -5.8878599999999999 16.9313 
43.150199999999998 -5.8878599999999999 16.9313 
43.516199999999998 5.8386699999999996 14.17 
3 2 3 0 
3 7 4 5 
3 10 21 8 
3 13 23 11 
3 16 14 20 
3 18 19 17 
3 0 1 2 
3 5 6 7 
3 8 9 10 
3 11 12 13 
3 20 15 16 
3 17 22 18 
3 1 0 3 
3 3 2 1 
3 6 5 4 
3 4 7 6 
3 9 8 21 
3 21 10 9 
3 12 11 23 
3 23 13 12 
3 15 20 14 
3 14 16 15 
3 22 17 19 
3 19 18 22 
