<?xml version="1.0" encoding="UTF-8" standalone="no" ?>
<svg 
	xmlns="http://www.w3.org/2000/svg"
	xmlns:xlink="http://www.w3.org/1999/xlink"
	version="1.1"
	width="100"
	height="100"
	viewBox="0 -20 900 400"
	xml:space="preserve"
>
<g transform="matrix(1 0 0 1 540 540)" id="529f9d9e-951f-408c-9df4-e7430deedbd7"  >
<rect style="stroke: none; stroke-width: 1; stroke-dasharray: none; stroke-linecap: butt; stroke-dashoffset: 0; stroke-linejoin: miter; stroke-miterlimit: 4; fill: rgb(255,255,255); fill-rule: nonzero; opacity: 1; visibility: hidden;" vector-effect="non-scaling-stroke"  x="-540" y="-540" rx="0" ry="0" width="1080" height="1080" />
</g>
<g transform="matrix(1 0 0 1 540 540)" id="87e4802d-b07c-4e96-bb22-c9a5d637b23f"  >
</g>
<g transform="matrix(1 0 0 1 186.61 540)"  >
<g style="" vector-effect="non-scaling-stroke"   >
		<g transform="matrix(0.12 0 0 -0.12 -2.44 0)"  >
<path style="stroke: none; stroke-width: 1; stroke-dasharray: none; stroke-linecap: butt; stroke-dashoffset: 0; stroke-linejoin: miter; stroke-miterlimit: 4; fill: rgb(0,0,0); fill-rule: nonzero; opacity: 1;" vector-effect="non-scaling-stroke"  transform=" translate(-2665.99, -750)" d="M 2670 1492 C 2670 1487 2640 1478 2603 1471 C 2535 1459 2492 1445 2411 1409 C 2370 1390 2368 1387 2374 1357 C 2393 1270 2393 1261 2375 1254 C 2364 1249 2339 1257 2309 1273 C 2283 1288 2255 1300 2247 1300 C 2238 1300 2207 1273 2178 1240 C 1953 985 1872 584 1993 330 C 2025 263 2095 175 2148 135 C 2208 88 2300 45 2373 29 C 2404 22 2430 13 2430 8 C 2430 4 2484 0 2550 0 C 2616 0 2670 4 2670 8 C 2670 13 2702 23 2741 30 C 2817 45 2841 64 2870 138 C 2892 195 2925 199 2943 147 C 2955 115 2979 117 3036 156 C 3152 236 3278 401 3337 550 C 3388 678 3395 718 3395 880 C 3395 1057 3380 1121 3311 1227 C 3235 1345 3088 1441 2938 1470 C 2900 1478 2870 1487 2870 1492 C 2870 1496 2825 1500 2770 1500 C 2715 1500 2670 1496 2670 1492 z M 2895 1218 C 3031 1163 3110 1015 3096 840 C 3082 668 3012 512 2895 394 C 2818 316 2746 276 2653 259 C 2513 233 2368 292 2294 403 C 2207 534 2227 781 2339 975 C 2382 1049 2501 1170 2555 1194 C 2577 1203 2604 1216 2615 1222 C 2670 1253 2814 1251 2895 1218 z" stroke-linecap="round" />
</g>
		<g transform="matrix(0.12 0 0 -0.12 236.53 0)"  >
<path style="stroke: none; stroke-width: 1; stroke-dasharray: none; stroke-linecap: butt; stroke-dashoffset: 0; stroke-linejoin: miter; stroke-miterlimit: 4; fill: rgb(0,0,0); fill-rule: nonzero; opacity: 1;" vector-effect="non-scaling-stroke"  transform=" translate(-4743.94, -750)" d="M 4740 1492 C 4740 1487 4707 1477 4668 1470 C 4515 1442 4392 1355 4336 1235 C 4311 1182 4308 1164 4307 1075 C 4307 952 4328 900 4405 824 C 4461 770 4537 729 4755 635 C 4826 605 4901 568 4923 555 C 5043 475 5019 335 4873 273 C 4845 261 4803 257 4710 257 C 4605 257 4578 260 4540 277 C 4470 309 4432 355 4419 425 C 4401 515 4405 513 4261 505 C 4191 501 4129 493 4123 488 C 4116 482 4112 468 4114 456 C 4117 445 4124 406 4131 370 C 4138 334 4151 287 4161 266 C 4177 230 4182 226 4216 226 C 4252 225 4256 222 4281 170 C 4296 140 4316 107 4326 98 C 4353 75 4433 45 4513 30 C 4550 22 4580 13 4580 8 C 4580 4 4639 0 4710 0 C 4782 0 4840 4 4840 8 C 4840 13 4866 22 4898 29 C 4929 35 4992 57 5037 77 C 5131 117 5147 139 5106 171 C 5059 208 5083 240 5159 240 C 5181 240 5210 244 5224 250 C 5280 271 5322 422 5301 527 C 5270 688 5194 752 4880 885 C 4675 972 4607 1019 4594 1085 C 4576 1185 4677 1260 4833 1260 C 4978 1260 5074 1203 5105 1097 L 5117 1055 L 5193 1052 L 5270 1049 L 5314 1097 C 5383 1170 5385 1179 5359 1235 C 5307 1345 5161 1444 5013 1470 C 4973 1477 4940 1487 4940 1492 C 4940 1496 4895 1500 4840 1500 C 4785 1500 4740 1496 4740 1492 z" stroke-linecap="round" />
</g>
		<g transform="matrix(0.12 0 0 -0.12 -274.38 0.51)"  >
<path style="stroke: none; stroke-width: 1; stroke-dasharray: none; stroke-linecap: butt; stroke-dashoffset: 0; stroke-linejoin: miter; stroke-miterlimit: 4; fill: rgb(0,0,0); fill-rule: nonzero; opacity: 1;" vector-effect="non-scaling-stroke"  transform=" translate(-301.25, -745.55)" d="M 306 1451 C 296 1435 270 1326 270 1298 C 270 1274 282 1264 365 1214 C 490 1140 487 1130 336 1110 C 286 1104 240 1095 231 1091 C 222 1085 202 1021 179 919 C 158 829 134 726 126 690 C 89 535 59 401 49 355 C 27 253 17 220 9 220 C 4 220 0 202 0 180 C 0 158 4 140 10 140 C 15 140 31 118 44 91 C 58 64 76 40 85 36 C 106 28 228 30 260 39 C 287 46 288 50 360 365 C 404 564 451 764 476 863 C 487 908 488 933 481 952 C 473 973 476 984 495 1011 C 508 1030 526 1079 535 1120 C 543 1161 563 1249 578 1315 C 594 1382 605 1441 602 1448 C 598 1462 315 1465 306 1451 z" stroke-linecap="round" />
</g>
		<g transform="matrix(0.12 0 0 -0.12 -172.39 0.63)"  >
<path style="stroke: none; stroke-width: 1; stroke-dasharray: none; stroke-linecap: butt; stroke-dashoffset: 0; stroke-linejoin: miter; stroke-miterlimit: 4; fill: rgb(0,0,0); fill-rule: nonzero; opacity: 1;" vector-effect="non-scaling-stroke"  transform=" translate(-1188.12, -744.52)" d="M 946 1448 C 926 1389 910 1318 908 1280 L 905 1235 L 1095 1229 C 1321 1221 1342 1216 1388 1156 C 1423 1110 1419 1043 1377 988 C 1359 964 1324 934 1300 920 C 1257 896 1246 895 1035 890 L 815 885 L 793 797 C 781 748 770 694 768 677 L 765 645 L 995 640 C 1206 635 1228 633 1265 614 C 1315 587 1334 565 1351 517 C 1379 438 1327 340 1232 293 C 1175 265 1175 265 928 262 C 666 258 662 257 658 209 C 656 171 689 71 712 48 C 732 28 738 27 974 33 C 1243 40 1336 56 1443 112 C 1514 150 1597 238 1635 316 C 1661 369 1664 385 1664 480 C 1665 572 1662 589 1642 621 C 1616 664 1547 728 1501 753 C 1483 762 1470 775 1472 782 C 1474 788 1501 807 1531 823 C 1638 880 1692 956 1712 1076 C 1721 1131 1721 1144 1708 1156 C 1695 1170 1689 1169 1656 1154 C 1603 1128 1592 1143 1609 1218 C 1637 1347 1638 1343 1584 1379 C 1488 1442 1431 1453 1178 1458 C 994 1461 949 1459 946 1448 z" stroke-linecap="round" />
</g>
		<g transform="matrix(0.12 0 0 -0.12 122.66 0.49)"  >
<path style="stroke: none; stroke-width: 1; stroke-dasharray: none; stroke-linecap: butt; stroke-dashoffset: 0; stroke-linejoin: miter; stroke-miterlimit: 4; fill: rgb(0,0,0); fill-rule: nonzero; opacity: 1;" vector-effect="non-scaling-stroke"  transform=" translate(-3753.79, -745.76)" d="M 3776 1448 C 3771 1431 3744 1321 3726 1240 C 3672 998 3606 712 3589 640 C 3568 555 3556 503 3524 360 C 3515 319 3501 261 3493 233 C 3481 186 3481 175 3498 128 C 3530 34 3528 35 3624 31 C 3672 30 3721 31 3734 34 C 3760 40 3764 52 3825 325 C 3864 502 3879 564 3909 690 C 3920 737 3938 816 3949 865 C 3968 957 3978 999 4006 1105 C 4028 1187 4028 1206 4010 1201 C 4002 1199 3982 1195 3966 1192 L 3937 1187 L 3943 1231 C 3963 1364 3970 1434 3966 1446 C 3959 1465 3781 1466 3776 1448 z" stroke-linecap="round" />
</g>
</g>
</g>
<g transform="matrix(0.33 0 0 0.33 909.32 540)"  >
<g style="" vector-effect="non-scaling-stroke"   >
		<g transform="matrix(0.13 0 0 -0.13 -682 0)"  >
<path style="stroke: none; stroke-width: 1; stroke-dasharray: none; stroke-linecap: butt; stroke-dashoffset: 0; stroke-linejoin: miter; stroke-miterlimit: 4; fill: rgb(0,0,0); fill-rule: nonzero; opacity: 1;" vector-effect="non-scaling-stroke"  transform=" translate(-1365, -1885)" d="M 0 3000 L 0 2230 L 405 2230 L 810 2230 L 810 1885 L 810 1540 L 405 1540 L 0 1540 L 0 770 L 0 0 L 1363 2 L 2725 5 L 2728 353 L 2730 700 L 1775 700 L 820 700 L 820 1120 L 820 1540 L 1690 1540 L 2560 1540 L 2560 1885 L 2560 2230 L 1690 2230 L 820 2230 L 820 2650 L 820 3070 L 1775 3070 L 2730 3070 L 2728 3418 L 2725 3765 L 1363 3768 L 0 3770 L 0 3000 z" stroke-linecap="round" />
</g>
		<g transform="matrix(0.13 0 0 -0.13 -209.04 0)"  >
<path style="stroke: none; stroke-width: 1; stroke-dasharray: none; stroke-linecap: butt; stroke-dashoffset: 0; stroke-linejoin: miter; stroke-miterlimit: 4; fill: rgb(0,0,0); fill-rule: nonzero; opacity: 1;" vector-effect="non-scaling-stroke"  transform=" translate(-4912.2, -1885)" d="M 3420 1885 L 3420 0 L 3825 0 L 4230 0 L 4232 768 L 4235 1535 L 4810 1541 C 5357 1546 5390 1548 5485 1569 C 5973 1678 6271 1946 6370 2363 C 6417 2562 6416 2766 6366 2964 C 6250 3419 5864 3707 5300 3759 C 5229 3766 4846 3770 4303 3770 L 3420 3770 L 3420 1885 z M 5101 3060 C 5351 3035 5500 2958 5567 2821 C 5593 2770 5595 2755 5595 2650 C 5595 2549 5592 2529 5571 2487 C 5539 2422 5470 2355 5399 2319 C 5260 2249 5043 2227 4545 2232 L 4235 2235 L 4232 2653 L 4230 3070 L 4614 3070 C 4825 3070 5044 3065 5101 3060 z" stroke-linecap="round" />
</g>
		<g transform="matrix(0.13 0 0 -0.13 240.67 0)"  >
<path style="stroke: none; stroke-width: 1; stroke-dasharray: none; stroke-linecap: butt; stroke-dashoffset: 0; stroke-linejoin: miter; stroke-miterlimit: 4; fill: rgb(0,0,0); fill-rule: nonzero; opacity: 1;" vector-effect="non-scaling-stroke"  transform=" translate(-8285, -1885)" d="M 6920 3000 L 6920 2230 L 7325 2230 L 7730 2230 L 7730 1885 L 7730 1540 L 7325 1540 L 6920 1540 L 6920 770 L 6920 0 L 7328 2 L 7735 5 L 7737 770 L 7740 1535 L 8610 1538 L 9480 1540 L 9480 1885 L 9480 2230 L 8612 2230 C 8134 2230 7741 2232 7739 2234 C 7737 2236 7736 2425 7738 2654 L 7740 3070 L 8695 3070 L 9650 3070 L 9650 3420 L 9650 3770 L 8285 3770 L 6920 3770 L 6920 3000 z" stroke-linecap="round" />
</g>
		<g transform="matrix(0.13 0 0 -0.13 682 0)"  >
<path style="stroke: none; stroke-width: 1; stroke-dasharray: none; stroke-linecap: butt; stroke-dashoffset: 0; stroke-linejoin: miter; stroke-miterlimit: 4; fill: rgb(0,0,0); fill-rule: nonzero; opacity: 1;" vector-effect="non-scaling-stroke"  transform=" translate(-11595, -1885)" d="M 10230 1885 L 10230 0 L 11595 0 L 12960 0 L 12960 350 L 12960 700 L 12005 700 L 11050 700 L 11048 2233 L 11045 3765 L 10638 3768 L 10230 3770 L 10230 1885 z" stroke-linecap="round" />
</g>
</g>
</g>
</svg>