<svg version="1.0" xmlns="http://www.w3.org/2000/svg"
 width="100%"
 height="100%"
 viewBox="-30 -20 600 300"
>s

<g transform="translate(-20,150) scale(0.045,-0.045)">
<path d="M0 3000 l0 -770 405 0 405 0 0 -345 0 -345 -405 0 -405 0 0 -770 0
-770 1363 2 1362 3 3 348 2 347 -955 0 -955 0 0 420 0 420 870 0 870 0 0 345
0 345 -870 0 -870 0 0 420 0 420 955 0 955 0 -2 348 -3 347 -1362 3 -1363 2 0
-770z"/>
<path d="M3420 1885 l0 -1885 405 0 405 0 2 768 3 767 575 6 c547 5 580 7 675
28 488 109 786 377 885 794 47 199 46 403 -4 601 -116 455 -502 743 -1066 795
-71 7 -454 11 -997 11 l-883 0 0 -1885z m1681 1175 c250 -25 399 -102 466
-239 26 -51 28 -66 28 -171 0 -101 -3 -121 -24 -163 -32 -65 -101 -132 -172
-168 -139 -70 -356 -92 -854 -87 l-310 3 -3 418 -2 417 384 0 c211 0 430 -5
487 -10z"/>
<path d="M6920 3000 l0 -770 405 0 405 0 0 -345 0 -345 -405 0 -405 0 0 -770
0 -770 408 2 407 3 2 765 3 765 870 3 870 2 0 345 0 345 -868 0 c-478 0 -871
2 -873 4 -2 2 -3 191 -1 420 l2 416 955 0 955 0 0 350 0 350 -1365 0 -1365 0
0 -770z"/>
<path d="M10230 1885 l0 -1885 1365 0 1365 0 0 350 0 350 -955 0 -955 0 -2
1533 -3 1532 -407 3 -408 2 0 -1885z"/>
</g>
</svg>
