<svg 
    xmlns="http://www.w3.org/2000/svg"
    version="1.0"
    width="100%"
    height="100%"
    viewBox="-30 -20 600 300"
>

<g transform="translate(-40,150) scale(0.115,-0.115)">
<path d="M2670 1492 c0 -5 -30 -14 -67 -21 -68 -12 -111 -26 -192 -62 -41 -19&#xA;-43 -22 -37 -52 19 -87 19 -96 1 -103 -11 -5 -36 3 -66 19 -26 15 -54 27 -62&#xA;27 -9 0 -40 -27 -69 -60 -225 -255 -306 -656 -185 -910 32 -67 102 -155 155&#xA;-195 60 -47 152 -90 225 -106 31 -7 57 -16 57 -21 0 -4 54 -8 120 -8 66 0 120&#xA;4 120 8 0 5 32 15 71 22 76 15 100 34 129 108 22 57 55 61 73 9 12 -32 36 -30&#xA;93 9 116 80 242 245 301 394 51 128 58 168 58 330 0 177 -15 241 -84 347 -76&#xA;118 -223 214 -373 243 -38 8 -68 17 -68 22 0 4 -45 8 -100 8 -55 0 -100 -4&#xA;-100 -8z m225 -274 c136 -55 215 -203 201 -378 -14 -172 -84 -328 -201 -446&#xA;-77 -78 -149 -118 -242 -135 -140 -26 -285 33 -359 144 -87 131 -67 378 45&#xA;572 43 74 162 195 216 219 22 9 49 22 60 28 55 31 199 29 280 -4z"/>
<path d="M4740 1492 c0 -5 -33 -15 -72 -22 -153 -28 -276 -115 -332 -235 -25&#xA;-53 -28 -71 -29 -160 0 -123 21 -175 98 -251 56 -54 132 -95 350 -189 71 -30&#xA;146 -67 168 -80 120 -80 96 -220 -50 -282 -28 -12 -70 -16 -163 -16 -105 0&#xA;-132 3 -170 20 -70 32 -108 78 -121 148 -18 90 -14 88 -158 80 -70 -4 -132&#xA;-12 -138 -17 -7 -6 -11 -20 -9 -32 3 -11 10 -50 17 -86 7 -36 20 -83 30 -104&#xA;16 -36 21 -40 55 -40 36 -1 40 -4 65 -56 15 -30 35 -63 45 -72 27 -23 107 -53&#xA;187 -68 37 -8 67 -17 67 -22 0 -4 59 -8 130 -8 72 0 130 4 130 8 0 5 26 14 58&#xA;21 31 6 94 28 139 48 94 40 110 62 69 94 -47 37 -23 69 53 69 22 0 51 4 65 10&#xA;56 21 98 172 77 277 -31 161 -107 225 -421 358 -205 87 -273 134 -286 200 -18&#xA;100 83 175 239 175 145 0 241 -57 272 -163 l12 -42 76 -3 77 -3 44 48 c69 73&#xA;71 82 45 138 -52 110 -198 209 -346 235 -40 7 -73 17 -73 22 0 4 -45 8 -100 8&#xA;-55 0 -100 -4 -100 -8z"/>
<path d="M306 1451 c-10 -16 -36 -125 -36 -153 0 -24 12 -34 95 -84 125 -74&#xA;122 -84 -29 -104 -50 -6 -96 -15 -105 -19 -9 -6 -29 -70 -52 -172 -21 -90 -45&#xA;-193 -53 -229 -37 -155 -67 -289 -77 -335 -22 -102 -32 -135 -40 -135 -5 0 -9&#xA;-18 -9 -40 0 -22 4 -40 10 -40 5 0 21 -22 34 -49 14 -27 32 -51 41 -55 21 -8&#xA;143 -6 175 3 27 7 28 11 100 326 44 199 91 399 116 498 11 45 12 70 5 89 -8&#xA;21 -5 32 14 59 13 19 31 68 40 109 8 41 28 129 43 195 16 67 27 126 24 133 -4&#xA;14 -287 17 -296 3z"/>
<path d="M946 1448 c-20 -59 -36 -130 -38 -168 l-3 -45 190 -6 c226 -8 247&#xA;-13 293 -73 35 -46 31 -113 -11 -168 -18 -24 -53 -54 -77 -68 -43 -24 -54 -25&#xA;-265 -30 l-220 -5 -22 -88 c-12 -49 -23 -103 -25 -120 l-3 -32 230 -5 c211 -5&#xA;233 -7 270 -26 50 -27 69 -49 86 -97 28 -79 -24 -177 -119 -224 -57 -28 -57&#xA;-28 -304 -31 -262 -4 -266 -5 -270 -53 -2 -38 31 -138 54 -161 20 -20 26 -21&#xA;262 -15 269 7 362 23 469 79 71 38 154 126 192 204 26 53 29 69 29 164 1 92&#xA;-2 109 -22 141 -26 43 -95 107 -141 132 -18 9 -31 22 -29 29 2 6 29 25 59 41&#xA;107 57 161 133 181 253 9 55 9 68 -4 80 -13 14 -19 13 -52 -2 -53 -26 -64 -11&#xA;-47 64 28 129 29 125 -25 161 -96 63 -153 74 -406 79 -184 3 -229 1 -232 -10z"/>
<path d="M3776 1448 c-5 -17 -32 -127 -50 -208 -54 -242 -120 -528 -137 -600&#xA;-21 -85 -33 -137 -65 -280 -9 -41 -23 -99 -31 -127 -12 -47 -12 -58 5 -105 32&#xA;-94 30 -93 126 -97 48 -1 97 0 110 3 26 6 30 18 91 291 39 177 54 239 84 365&#xA;11 47 29 126 40 175 19 92 29 134 57 240 22 82 22 101 4 96 -8 -2 -28 -6 -44&#xA;-9 l-29 -5 6 44 c20 133 27 203 23 215 -7 19 -185 20 -190 2z"/>
</g>
</svg>