<?xml version="1.0" encoding="iso-8859-1"?>
<!-- Uploaded to: SVG Repo, www.svgrepo.com, Generator: SVG Repo Mixer Tools -->
<svg height="800px" width="800px" version="1.1" id="Capa_1" xmlns="http://www.w3.org/2000/svg" xmlns:xlink="http://www.w3.org/1999/xlink" 
	 viewBox="0 0 325.806 325.806" xml:space="preserve">
<g>
	<g>
		<path style="fill:#010002;" d="M260.537,113.296h-160.49c0.092,0.8,0.234,1.583,0.228,2.404l-0.098,15.724h148.584
			c33.102,0,55.397,22.703,57.768,51.666H99.856h-2.72h-2.72l0.321-51.666l0.098-15.757c0.005-0.734-0.103-1.436-0.201-2.143
			c-1.001-7.131-7.044-12.657-14.457-12.7l-64.741-0.402c-0.033,0-0.06,0-0.092,0c-8.104,0-14.696,6.543-14.751,14.658L0,210.138
			c-0.049,8.148,6.511,14.794,14.658,14.843l64.741,0.402c0.033,0,0.06,0,0.092,0c5.999,0,11.15-3.595,13.456-8.746
			c0.745-1.67,1.169-3.508,1.246-5.439c0.005-0.163,0.049-0.31,0.049-0.473l0.071-11.313h2.72h2.72h7.212l11.786,11.786
			l10.878-10.878l10.878,10.878l10.878-10.878l10.878,10.878l10.878-10.878l10.878,10.878l10.878-10.878l10.878,10.878
			l10.878-10.878l10.878,10.878l10.878-10.878l10.878,10.878l10.878-10.878l10.878,10.878l10.878-10.878l10.878,10.878
			l11.786-11.786h2.181v11.786h19.037v-32.634C325.806,142.52,296.582,113.296,260.537,113.296z M15.42,180.18l0.326-52.036
			c0.027-4.46,3.666-8.05,8.126-8.023l35.436,0.223c2.317,0.016,4.389,1.017,5.852,2.594c1.349,1.452,2.187,3.389,2.17,5.532
			l-0.033,5.613l-0.288,46.422c-0.027,4.46-3.666,8.05-8.126,8.023l-24.976-0.158l-10.459-0.065c-0.141,0-0.277-0.038-0.413-0.044
			C18.77,188.018,15.398,184.499,15.42,180.18z"/>
	</g>
</g>
</svg>