ply
format ascii 1.0
comment Generated by the CGAL library
element vertex 9
property double x
property double y
property double z
element face 14
property list uchar int vertex_indices
end_header
-46.6526 -3.02738 16.081099999999999
-46.705199999999998 1.98366 20.951499999999999
53.249099999999999 -0.71089199999999997 24.4941
53.273400000000002 -5.7099799999999998 19.633700000000001
53.400799999999997 4.1841100000000004 19.388400000000001
-46.526699999999998 6.7645400000000002 15.965
53.423499999999997 -0.85419999999999996 14.593299999999999
-46.476199999999999 1.7139200000000001 11.159800000000001
53.273499999999999 -5.7099799999999998 19.633700000000001
3 3 0 1
3 5 4 2
3 5 7 6
3 8 6 7
3 6 3 2
3 1 0 7
3 1 2 3
3 2 1 5
3 6 4 5
3 7 0 8
3 2 4 6
3 7 5 1
3 3 6 8
3 0 3 8
