ply
format ascii 1.0
comment Generated by the CGAL library
element vertex 37
property double x
property double y
property double z
element face 50
property list uchar int vertex_indices
end_header
6.8123399999999998 13.439299999999999 10.970000000000001 
4.4724399999999997 1.823 7.3304299999999998 
11.4153 0.67441300000000004 6.88673 
13.551500000000001 12.1859 10.4956 
7.1057100000000002 14.8957 11.426399999999999 
13.8406 13.7441 10.9841 
10.4701 -9.4938099999999999 40.642600000000002 
10.160399999999999 -13.375500000000001 55.534500000000001 
12.5587 -0.40359099999999998 59.248699999999999 
12.710900000000001 1.2767299999999999 53.516300000000001 
5.92964 0.694442 59.803199999999997 
3.34903 -12.173 56.125999999999998 
3.6724399999999999 -7.50976 38.271999999999998 
6.1357799999999996 3.1835300000000002 51.324100000000001 
5.92964 0.69444099999999997 59.803199999999997 
11.180300000000001 -0.59170699999999998 6.4897900000000002 
4.23949 0.66651899999999997 6.9680799999999996 
3.2157399999999998 -12.8377 55.936 
10.057600000000001 -13.931699999999999 55.375300000000003 
11.4153 0.67441399999999996 6.88673 
4.4724399999999997 1.82301 7.3304299999999998 
5.9921300000000004 1.0059800000000001 59.892200000000003 
12.5977 -0.19223199999999999 59.309199999999997 
12.5587 -0.40359 59.248699999999999 
6.8123399999999998 13.439299999999999 10.970000000000001 
13.551500000000001 12.1859 10.4956 
10.4701 -9.4938099999999999 40.642600000000002 
10.4701 -9.4938099999999999 40.642600000000002 
10.4701 -9.4938099999999999 40.642600000000002 
12.710900000000001 1.2767299999999999 53.516300000000001 
12.710900000000001 1.2767299999999999 53.516300000000001 
12.710900000000001 1.2767299999999999 53.516300000000001 
3.6724399999999999 -7.50976 38.271999999999998 
3.6724399999999999 -7.50976 38.271999999999998 
3.6724399999999999 -7.50976 38.271999999999998 
6.1357799999999996 3.1835300000000002 51.324100000000001 
6.1357799999999996 3.1835300000000002 51.324100000000001 
3 3 0 1 
3 25 5 4 
3 6 3 2 
3 12 13 11 
3 7 11 14 
3 7 6 12 
3 32 26 15 
3 18 27 33 
3 34 28 19 
3 22 21 35 
3 3 9 13 
3 23 10 13 
3 5 29 36 
3 1 2 3 
3 4 24 25 
3 6 7 9 
3 9 7 8 
3 6 9 3 
3 12 0 13 
3 12 1 0 
3 11 13 10 
3 14 8 7 
3 12 11 7 
3 15 16 32 
3 33 17 18 
3 19 20 34 
3 35 30 22 
3 13 0 3 
3 13 31 23 
3 36 4 5 
3 24 4 36 
3 24 36 29 
3 25 24 29 
3 5 25 29 
3 1 12 6 
3 6 2 1 
3 9 8 14 
3 13 9 14 
3 31 13 14 
3 23 31 14 
3 10 23 14 
3 14 11 10 
3 16 15 26 
3 26 32 16 
3 17 33 27 
3 27 18 17 
3 20 19 28 
3 28 34 20 
3 30 35 21 
3 21 22 30 
