ply
format ascii 1.0
comment Generated by the CGAL library
element vertex 14
property double x
property double y
property double z
element face 20
property list uchar int vertex_indices
end_header
-50.812399999999997 4.6896800000000001 3.1067200000000001 
-51.830500000000001 0.74610500000000002 8.5857600000000005 
46.667999999999999 -6.0456099999999999 21.985299999999999 
47.738700000000001 -2.1193200000000001 16.532499999999999 
47.448900000000002 3.6097899999999998 20.499700000000001 
46.344799999999999 -0.36243700000000001 26.149999999999999 
-52.107900000000001 6.4466200000000002 12.7719 
-51.058399999999999 10.436500000000001 7.0943899999999998 
-51.830500000000001 0.74610399999999999 8.5857600000000005 
-50.812399999999997 4.6896699999999996 3.1067200000000001 
46.667900000000003 -6.0456099999999999 21.985299999999999 
-51.830500000000001 0.74610500000000002 8.5857600000000005 
46.667999999999999 -6.0456099999999999 21.985299999999999 
47.738700000000001 -2.1193200000000001 16.532499999999999 
3 2 3 0 
3 7 4 5 
3 5 12 8 
3 9 13 4 
3 6 1 9 
3 13 10 5 
3 0 11 2 
3 5 6 7 
3 8 6 5 
3 4 7 9 
3 9 7 6 
3 5 4 13 
3 11 0 3 
3 3 2 11 
3 10 13 9 
3 1 6 8 
3 9 1 8 
3 10 9 8 
3 10 8 12 
3 12 5 10 
